<?xml version="1.0" encoding="UTF-8"?><svg id="Layer_2" xmlns="http://www.w3.org/2000/svg" viewBox="0 0 796.795 132.633"><defs><style>.cls-1{fill:#161a26;}</style></defs><g id="Layer_2-2"><g id="Layer_1-2"><path class="cls-1" d="M193.084,36.637c11.039,0,20.759,4.08,24.239,13.919h12.12c-4.32-17.159-20.52-25.079-36.958-25.079-23.039,0-41.039,17.639-41.039,42.358s18,42.359,41.039,42.359c16.439,0,32.639-7.92,36.958-25.08h-12.12c-3.48,9.839-13.2,13.919-24.239,13.919-17.399,0-29.639-11.879-29.639-31.199s12.24-31.199,29.639-31.199v.002Z"/><path class="cls-1" d="M265.203,47.796c-18.119,0-30.719,12.959-30.719,31.198,0,19.08,13.799,31.2,30.719,31.2s30.719-12.12,30.719-31.2c0-18.239-12.599-31.198-30.719-31.198ZM265.203,100.234c-11.639,0-19.559-8.76-19.559-21.24,0-13.559,8.399-21.359,19.559-21.359,10.68,0,19.559,7.8,19.559,21.359,0,12.48-7.919,21.24-19.559,21.24Z"/><path class="cls-1" d="M336.242,47.916c-9.24,0-16.439,2.64-21.359,10.32h-4.2v-9.24h-11.999v11.52h5.879v48.479h11.16v-33.959c0-11.04,5.88-17.16,17.399-17.16,10.079,0,15.359,5.52,15.359,16.439v34.679h11.159v-36.839c0-15.12-9.359-24.239-23.398-24.239h0Z"/><path class="cls-1" d="M385.683,57.636h15.359v-8.64h-15.479v-18.239h-11.04v18.239h-11.28v8.64h11.16v41.519c0,3.24.96,5.64,2.76,7.319,1.681,1.801,4.08,2.521,7.44,2.521h18.239v-8.88h-17.159v-42.479h0Z"/><path class="cls-1" d="M423.721,60.156h-4.079v-11.16h-12v11.52h5.88v48.479h11.16v-30.359c0-12.12,6.6-19.799,18.719-19.799h5.399v-10.319h-4.8c-8.159,0-15.479,3-20.279,11.64v-.002Z"/><path class="cls-1" d="M503.52,70.715c0-7.92-2.64-13.8-7.439-17.52-4.439-3.6-10.68-5.28-18.239-5.28-12.959,0-24.599,6-26.398,18.599h11.039c1.68-6.359,7.08-9.479,15.479-9.479,4.56,0,8.04.96,10.439,2.76,2.88,2.28,4.32,5.64,4.32,10.08v2.16c-11.28.24-24.359.84-32.999,5.4-5.52,3-9.239,7.68-9.239,15.12,0,12.239,9.119,17.52,21.358,17.52,9.12,0,16.68-3.36,20.88-10.2h4.199v9.24h12.12v-11.399h-5.521v-27h.001ZM492.721,84.515c0,9.72-8.88,16.08-18.72,16.08-6.84,0-12.359-2.16-12.359-8.521,0-3.72,2.16-6.24,5.64-7.919,6.84-3.24,18.119-3.36,25.439-3.36,0,0,0,3.72,0,3.72Z"/><rect class="cls-1" x="515.761" y="24.997" width="11.28" height="10.799"/><rect class="cls-1" x="515.881" y="48.996" width="11.16" height="59.998"/><rect class="cls-1" x="537.84" y="24.997" width="11.16" height="83.997"/><path class="cls-1" d="M590.039,74.075l-12.119-2.04c-4.681-.84-8.76-2.4-8.76-7.2,0-6,6.6-7.92,12.6-7.92,7.919,0,12.719,2.28,14.759,9.48h10.68c-1.56-13.08-12.84-18.719-25.438-18.719-12.36,0-23.399,5.76-23.399,18.239,0,8.399,5.52,13.799,16.56,15.839l12.479,2.28c5.88,1.08,10.079,3,10.079,8.4,0,5.88-5.04,8.52-12.84,8.52-8.279,0-13.679-2.279-16.679-10.56h-10.92c1.08,12.84,12.96,19.919,26.879,19.68,13.56,0,24.239-6.12,24.239-18.6,0-10.2-7.319-15.6-18.119-17.399h0Z"/><rect class="cls-1" x="612.48" y="98.194" width="11.279" height="10.8"/><path class="cls-1" d="M655.198,47.796c-18.119,0-30.719,12.959-30.719,31.198,0,19.08,13.8,31.2,30.719,31.2s30.719-12.12,30.719-31.2c0-18.239-12.6-31.198-30.719-31.198ZM655.198,100.234c-11.64,0-19.559-8.76-19.559-21.24,0-13.559,8.399-21.359,19.559-21.359,10.68,0,19.56,7.8,19.56,21.359,0,12.48-7.92,21.24-19.56,21.24Z"/><path class="cls-1" d="M704.758,60.156h-4.08v-11.16h-12v11.52h5.88v48.479h11.159v-30.359c0-12.12,6.601-19.799,18.72-19.799h5.399v-10.319h-4.8c-8.159,0-15.479,3-20.278,11.64v-.002Z"/><path class="cls-1" d="M784.677,48.996v9.24h-4.08c-4.08-6.6-11.64-10.32-20.879-10.32-18.479,0-28.799,12.72-28.799,29.759,0,16.56,10.199,29.759,28.318,29.759,8.52,0,16.319-2.999,20.039-11.039h.36v9.479c0,12.239-8.04,17.279-18.959,17.279-9,0-15-3.84-16.92-10.079h-12.239c2.28,13.559,15.359,19.559,29.399,19.559,17.398,0,29.998-8.64,29.998-26.278v-45.839h5.88v-11.52h-12.119.001ZM779.637,81.755c0,9.6-7.199,15.84-17.64,15.84-13.199,0-19.799-8.52-19.799-19.92,0-11.04,6-19.799,19.799-19.799,10.2,0,17.64,6.12,17.64,16.56v7.32h0Z"/><path class="cls-1" d="M86.732,19.262l-5.304,12.256c20.51,8.875,29.941,32.696,21.065,53.205-8.875,20.51-32.696,29.941-53.205,21.065l-4.641,10.725c26.855,11.621,58.047-.728,69.668-27.584,11.622-26.855-.728-58.047-27.583-69.668h0Z"/><path class="cls-1" d="M24.016,64.405c8.692-20.086,32.021-29.323,52.108-20.631l5.304-12.256c-25.577-11.068-55.149-.044-67.399,24.631.716-3.133,1.713-6.247,3.036-9.303C28.685,19.99,59.876,7.64,86.732,19.262l5.967-13.789C59.075-9.078,20.021,6.385,5.471,40.009c-14.193,32.798.179,70.75,32.1,86.1.798.394,1.61.771,2.436,1.128l4.641-10.724c-20.086-8.692-29.323-32.022-20.631-52.108h0Z"/></g></g></svg>